<svg width="94" height="96" viewBox="0 0 94 96" fill="none" xmlns="http://www.w3.org/2000/svg">
<path d="M18.8296 5.36414H34.8296C59.6824 5.36414 79.8296 25.5113 79.8296 50.3641V86.3641H18.8296V5.36414Z" fill="white"/>
<path d="M30.5321 56.958C29.9058 56.958 29.3051 56.7091 28.8621 56.2662C28.4192 55.8233 28.1704 55.2226 28.1704 54.5962C28.1704 53.9699 28.4192 53.3691 28.8621 52.9262C29.3051 52.4833 29.9058 52.2345 30.5321 52.2345H63.5963C64.2227 52.2345 64.8234 52.4833 65.2663 52.9262C65.7092 53.3691 65.958 53.9699 65.958 54.5962C65.958 55.2226 65.7092 55.8233 65.2663 56.2662C64.8234 56.7091 64.2227 56.958 63.5963 56.958H30.5321ZM30.5321 71.1283C29.9058 71.1283 29.3051 70.8795 28.8621 70.4366C28.4192 69.9937 28.1704 69.393 28.1704 68.7666C28.1704 68.1402 28.4192 67.5395 28.8621 67.0966C29.3051 66.6537 29.9058 66.4049 30.5321 66.4049H63.5963C64.2227 66.4049 64.8234 66.6537 65.2663 67.0966C65.7092 67.5395 65.958 68.1402 65.958 68.7666C65.958 69.393 65.7092 69.9937 65.2663 70.4366C64.8234 70.8795 64.2227 71.1283 63.5963 71.1283H30.5321Z" fill="black"/>
<path fill-rule="evenodd" clip-rule="evenodd" d="M52.6615 5H21.0852C19.2061 5 17.4039 5.74647 16.0752 7.0752C14.7465 8.40393 14 10.2061 14 12.0852V82.937C14 84.8161 14.7465 86.6182 16.0752 87.947C17.4039 89.2757 19.2061 90.0222 21.0852 90.0222H73.0432C74.9223 90.0222 76.7244 89.2757 78.0531 87.947C79.3819 86.6182 80.1283 84.8161 80.1283 82.937V34.2949C80.1279 32.5211 79.4621 30.812 78.2626 29.5053L57.8856 7.2956C57.2215 6.57171 56.4142 5.99382 55.5149 5.59863C54.6155 5.20343 53.6438 4.99958 52.6615 5ZM18.7235 12.0852C18.7235 11.4588 18.9723 10.8581 19.4152 10.4152C19.8581 9.97228 20.4588 9.72345 21.0852 9.72345H52.6615C52.9892 9.72309 53.3134 9.79094 53.6135 9.92268C53.9135 10.0544 54.1829 10.2472 54.4044 10.4887L74.7814 32.6983C75.1818 33.1337 75.4043 33.7034 75.4049 34.2949V82.937C75.4049 83.5634 75.1561 84.1641 74.7132 84.607C74.2703 85.0499 73.6695 85.2987 73.0432 85.2987H21.0852C20.4588 85.2987 19.8581 85.0499 19.4152 84.607C18.9723 84.1641 18.7235 83.5634 18.7235 82.937V12.0852Z" fill="black"/>
<path d="M51.7877 33.3407H77.7667C78.393 33.3407 78.9937 33.5895 79.4367 34.0325C79.8796 34.4754 80.1284 35.0761 80.1284 35.7024C80.1284 36.3288 79.8796 36.9295 79.4367 37.3724C78.9937 37.8153 78.393 38.0642 77.7667 38.0642H49.4259C48.7996 38.0642 48.1989 37.8153 47.7559 37.3724C47.313 36.9295 47.0642 36.3288 47.0642 35.7024V7.36173C47.0642 6.73536 47.313 6.13464 47.7559 5.69173C48.1989 5.24882 48.7996 5 49.4259 5C50.0523 5 50.653 5.24882 51.0959 5.69173C51.5388 6.13464 51.7877 6.73536 51.7877 7.36173V33.3407Z" fill="black"/>
</svg>
