<svg width="94" height="80" viewBox="0 0 94 80" fill="none" xmlns="http://www.w3.org/2000/svg">
<g filter="url(#filter0_d_311_1468)">
<path d="M7.25417 9.2411C7.39195 6.58386 9.58666 4.5 12.2475 4.5H32.3527C33.4226 4.5 34.4643 4.84318 35.3247 5.47912L44.1753 12.0209C45.0357 12.6568 46.0774 13 47.1473 13H85C87.7614 13 90 15.2386 90 18V67C90 69.7614 87.7614 72 85 72H9.26597C6.40284 72 4.12442 69.6004 4.27268 66.7411L7.25417 9.2411Z" fill="white"/>
</g>
<path d="M33.7339 0C35.4565 0 37.1342 0.528022 38.5423 1.50542L39.1265 1.95481L48.0205 9.3621H84.4502C86.483 9.36143 88.4475 10.0957 89.9815 11.4294C91.5155 12.7631 92.5156 14.6065 92.7975 16.6196L92.8574 17.2113L92.8761 17.788V66.4709C92.8764 68.6059 92.0661 70.6614 90.6091 72.222C89.1521 73.7826 87.157 74.7319 85.0269 74.8781L84.4502 74.8968H11.4259C9.29086 74.897 7.23533 74.0868 5.67474 72.6298C4.11414 71.1727 3.16486 69.1776 3.01872 67.0476L3 66.4709V8.42589C2.99974 6.29086 3.80999 4.23533 5.26701 2.67474C6.72403 1.11414 8.71916 0.164856 10.8492 0.0187246L11.4259 0H33.7339ZM39.1265 22.3904C37.8055 23.4896 36.1799 24.1587 34.4679 24.3077L33.7339 24.3415L8.61726 24.3377V66.4709C8.61726 67.8939 9.6733 69.0698 11.0439 69.2533L11.4259 69.2795H84.4502C85.1289 69.2795 85.7847 69.0337 86.2962 68.5876C86.8077 68.1415 87.1404 67.5253 87.2327 66.8529L87.2589 66.4709V17.788C87.2588 17.1093 87.0131 16.4535 86.5669 15.942C86.1208 15.4305 85.5046 15.0979 84.8322 15.0056L84.4502 14.9794H48.0167L39.1265 22.3904ZM33.7339 5.61726H11.4259C10.7472 5.61729 10.0914 5.86308 9.57994 6.30918C9.06844 6.75528 8.73578 7.37151 8.64347 8.04391L8.61726 8.42589V18.7204L33.7339 18.7242C34.2567 18.7236 34.769 18.577 35.2131 18.301L35.5314 18.0763L42.6129 12.167L35.5352 6.26886C35.1322 5.93259 34.6431 5.71594 34.1234 5.64347L33.7339 5.61726Z" fill="black"/>
<defs>
<filter id="filter0_d_311_1468" x="0.265625" y="4.5" width="93.7344" height="75.5" filterUnits="userSpaceOnUse" color-interpolation-filters="sRGB">
<feFlood flood-opacity="0" result="BackgroundImageFix"/>
<feColorMatrix in="SourceAlpha" type="matrix" values="0 0 0 0 0 0 0 0 0 0 0 0 0 0 0 0 0 0 127 0" result="hardAlpha"/>
<feOffset dy="4"/>
<feGaussianBlur stdDeviation="2"/>
<feComposite in2="hardAlpha" operator="out"/>
<feColorMatrix type="matrix" values="0 0 0 0 0 0 0 0 0 0 0 0 0 0 0 0 0 0 0.25 0"/>
<feBlend mode="normal" in2="BackgroundImageFix" result="effect1_dropShadow_311_1468"/>
<feBlend mode="normal" in="SourceGraphic" in2="effect1_dropShadow_311_1468" result="shape"/>
</filter>
</defs>
</svg>
