<svg width="81" height="74" viewBox="0 0 81 74" fill="none" xmlns="http://www.w3.org/2000/svg">
<path d="M40.5 27.9319V20.0416C40.4989 19.4323 40.3004 18.8369 39.9296 18.3304C39.5587 17.824 39.032 17.4291 38.4159 17.1957C37.7999 16.9623 37.1219 16.9006 36.4676 17.0186C35.8132 17.1366 35.2117 17.4289 34.7389 17.8586L13.5 37L34.7389 56.1382C35.0516 56.4255 35.4234 56.6535 35.8329 56.8091C36.2424 56.9647 36.6815 57.0448 37.125 57.0448C37.5685 57.0448 38.0076 56.9647 38.4171 56.8091C38.8266 56.6535 39.1984 56.4255 39.5111 56.1382C39.8247 55.8521 40.0734 55.5122 40.2431 55.1382C40.4128 54.7641 40.5001 54.3632 40.5 53.9583V46.2839C49.7812 46.4935 59.9231 48.029 67.5 58.5833V55.5C67.5 41.2149 55.6875 29.4674 40.5 27.9319Z" fill="white"/>
</svg>
