<svg width="215" height="215" viewBox="0 0 215 215" fill="none" xmlns="http://www.w3.org/2000/svg">
<path d="M188.009 143.333C188.047 142.377 187.929 141.421 187.659 140.502L169.742 86.7525C169.151 84.9679 168.012 83.4152 166.487 82.3152C164.963 81.2151 163.13 80.6237 161.25 80.625H125.417V98.5417H154.791L169.725 143.333H45.2754L60.209 98.5417H89.5833V80.625H53.75C51.8699 80.6237 50.0373 81.2151 48.5127 82.3152C46.9881 83.4152 45.849 84.9679 45.2575 86.7525L27.3408 140.502C27.0708 141.421 26.9528 142.377 26.9915 143.333C26.875 143.333 26.875 188.125 26.875 188.125C26.875 190.501 27.8188 192.779 29.4988 194.46C31.1788 196.14 33.4574 197.083 35.8333 197.083H179.167C181.543 197.083 183.821 196.14 185.501 194.46C187.181 192.779 188.125 190.501 188.125 188.125C188.125 188.125 188.125 143.333 188.009 143.333ZM143.333 70.8067C145.654 70.8067 147.974 69.9556 149.667 68.2715C151.346 66.5915 152.29 64.3133 152.29 61.9379C152.29 59.5625 151.346 57.2843 149.667 55.6044L107.5 13.4375L65.3331 55.6044C63.6537 57.2843 62.7102 59.5625 62.7102 61.9379C62.7102 64.3133 63.6537 66.5915 65.3331 68.2715C67.0262 69.9646 69.3465 70.8067 71.6667 70.8067C73.9869 70.8067 76.3071 69.9646 78.0002 68.2715L98.5417 47.73V107.5C98.5417 109.876 99.4855 112.154 101.166 113.834C102.846 115.515 105.124 116.458 107.5 116.458C109.876 116.458 112.154 115.515 113.834 113.834C115.515 112.154 116.458 109.876 116.458 107.5V47.73L137 68.2715C138.692 69.9213 140.97 70.8329 143.333 70.8067Z" fill="black"/>
</svg>
