<svg width="22" height="29" viewBox="0 0 22 29" fill="none" xmlns="http://www.w3.org/2000/svg">
<path d="M19.833 13.751V8.875C19.833 3.981 15.853 0 10.958 0C6.063 0 2.083 3.98 2.083 8.875V13.751H0V28.834H21.916V13.751H19.833ZM5.583 8.875C5.583 5.911 7.993 3.5 10.958 3.5C13.923 3.5 16.333 5.91 16.333 8.875V13.751H5.583V8.875ZM13.23 25.373H8.685L9.907 21.706C9.51052 21.5112 9.17636 21.2095 8.94223 20.8349C8.70811 20.4603 8.58334 20.0277 8.582 19.586C8.582 18.9561 8.83222 18.352 9.27762 17.9066C9.72302 17.4612 10.3271 17.211 10.957 17.211C11.5869 17.211 12.191 17.4612 12.6364 17.9066C13.0818 18.352 13.332 18.9561 13.332 19.586C13.332 20.518 12.79 21.316 12.008 21.706L13.23 25.373Z" fill="#FEFEFE"/>
</svg>
