<svg width="26" height="18" viewBox="0 0 26 18" fill="none" xmlns="http://www.w3.org/2000/svg">
<path d="M12.9465 0C7.06173 0 2.03613 3.63168 0 8.75806C2.03613 13.8845 7.06173 17.5161 12.9465 17.5161C18.8313 17.5161 23.8569 13.8845 25.893 8.75806C23.8569 3.63168 18.8313 0 12.9465 0ZM12.9465 14.5968C9.69811 14.5968 7.06173 11.981 7.06173 8.75806C7.06173 5.5351 9.69811 2.91935 12.9465 2.91935C16.1949 2.91935 18.8313 5.5351 18.8313 8.75806C18.8313 11.981 16.1949 14.5968 12.9465 14.5968ZM12.9465 5.25484C10.9928 5.25484 9.41564 6.81961 9.41564 8.75806C9.41564 10.6965 10.9928 12.2613 12.9465 12.2613C14.9002 12.2613 16.4774 10.6965 16.4774 8.75806C16.4774 6.81961 14.9002 5.25484 12.9465 5.25484Z" fill="white"/>
</svg>
