<svg width="138" height="46" viewBox="0 0 138 46" fill="none" xmlns="http://www.w3.org/2000/svg">
<path d="M62.8992 38.36C60.9552 38.36 59.1312 38 57.4272 37.28C55.7472 36.536 54.2712 35.516 52.9992 34.22C51.7512 32.9 50.7672 31.364 50.0472 29.612C49.3512 27.86 49.0032 25.964 49.0032 23.924C49.0032 21.908 49.3512 20.036 50.0472 18.308C50.7672 16.556 51.7512 15.032 52.9992 13.736C54.2712 12.416 55.7472 11.384 57.4272 10.64C59.1072 9.896 60.9312 9.524 62.8992 9.524C64.7472 9.524 66.3312 9.764 67.6512 10.244C68.9952 10.724 70.3392 11.516 71.6832 12.62C71.8752 12.764 72.0192 12.92 72.1152 13.088C72.2352 13.232 72.3072 13.388 72.3312 13.556C72.3792 13.7 72.4032 13.88 72.4032 14.096C72.4032 14.552 72.2352 14.936 71.8992 15.248C71.5872 15.536 71.2032 15.704 70.7472 15.752C70.2912 15.776 69.8472 15.62 69.4152 15.284C68.5272 14.516 67.6032 13.928 66.6432 13.52C65.7072 13.112 64.4592 12.908 62.8992 12.908C61.4832 12.908 60.1512 13.196 58.9032 13.772C57.6552 14.348 56.5512 15.14 55.5912 16.148C54.6552 17.156 53.9232 18.332 53.3952 19.676C52.8672 20.996 52.6032 22.412 52.6032 23.924C52.6032 25.46 52.8672 26.9 53.3952 28.244C53.9232 29.564 54.6552 30.728 55.5912 31.736C56.5512 32.744 57.6552 33.536 58.9032 34.112C60.1512 34.664 61.4832 34.94 62.8992 34.94C64.1232 34.94 65.2752 34.736 66.3552 34.328C67.4592 33.896 68.5152 33.308 69.5232 32.564C69.9552 32.252 70.3752 32.12 70.7832 32.168C71.2152 32.192 71.5752 32.36 71.8632 32.672C72.1512 32.96 72.2952 33.368 72.2952 33.896C72.2952 34.136 72.2472 34.376 72.1512 34.616C72.0552 34.832 71.9112 35.036 71.7192 35.228C70.4232 36.26 69.0312 37.04 67.5432 37.568C66.0792 38.096 64.5312 38.36 62.8992 38.36ZM79.7596 30.836C79.2316 30.836 78.7876 30.668 78.4276 30.332C78.0916 29.972 77.9236 29.528 77.9236 29V11.72C77.9236 11.168 78.0916 10.724 78.4276 10.388C78.7876 10.052 79.2316 9.884 79.7596 9.884C80.3116 9.884 80.7556 10.052 81.0916 10.388C81.4276 10.724 81.5956 11.168 81.5956 11.72V29C81.5956 29.528 81.4276 29.972 81.0916 30.332C80.7556 30.668 80.3116 30.836 79.7596 30.836ZM94.5556 38.036C94.0276 38.036 93.5836 37.868 93.2236 37.532C92.8876 37.172 92.7196 36.728 92.7196 36.2V27.344C92.7196 25.976 92.4676 24.86 91.9636 23.996C91.4596 23.132 90.7756 22.496 89.9116 22.088C89.0716 21.656 88.0996 21.44 86.9956 21.44C85.9876 21.44 85.0756 21.644 84.2596 22.052C83.4436 22.46 82.7956 23.012 82.3156 23.708C81.8356 24.38 81.5956 25.16 81.5956 26.048H79.3276C79.3276 24.536 79.6876 23.192 80.4076 22.016C81.1516 20.816 82.1596 19.868 83.4316 19.172C84.7036 18.476 86.1316 18.128 87.7156 18.128C89.3716 18.128 90.8476 18.488 92.1436 19.208C93.4636 19.904 94.4956 20.936 95.2396 22.304C96.0076 23.672 96.3916 25.352 96.3916 27.344V36.2C96.3916 36.728 96.2116 37.172 95.8516 37.532C95.5156 37.868 95.0836 38.036 94.5556 38.036ZM79.7596 38.036C79.2316 38.036 78.7876 37.868 78.4276 37.532C78.0916 37.172 77.9236 36.728 77.9236 36.2V20.144C77.9236 19.592 78.0916 19.148 78.4276 18.812C78.7876 18.476 79.2316 18.308 79.7596 18.308C80.3116 18.308 80.7556 18.476 81.0916 18.812C81.4276 19.148 81.5956 19.592 81.5956 20.144V36.2C81.5956 36.728 81.4276 37.172 81.0916 37.532C80.7556 37.868 80.3116 38.036 79.7596 38.036ZM110.706 38.144C108.954 38.144 107.382 37.712 105.99 36.848C104.598 35.96 103.494 34.772 102.678 33.284C101.886 31.772 101.49 30.068 101.49 28.172C101.49 26.276 101.922 24.572 102.786 23.06C103.674 21.548 104.862 20.36 106.35 19.496C107.862 18.608 109.554 18.164 111.426 18.164C113.298 18.164 114.978 18.608 116.466 19.496C117.954 20.36 119.13 21.548 119.994 23.06C120.882 24.572 121.326 26.276 121.326 28.172H119.922C119.922 30.068 119.514 31.772 118.698 33.284C117.906 34.772 116.814 35.96 115.422 36.848C114.03 37.712 112.458 38.144 110.706 38.144ZM111.426 34.904C112.65 34.904 113.742 34.616 114.702 34.04C115.662 33.44 116.418 32.636 116.97 31.628C117.522 30.596 117.798 29.444 117.798 28.172C117.798 26.876 117.522 25.724 116.97 24.716C116.418 23.684 115.662 22.88 114.702 22.304C113.742 21.704 112.65 21.404 111.426 21.404C110.226 21.404 109.134 21.704 108.15 22.304C107.19 22.88 106.422 23.684 105.846 24.716C105.294 25.724 105.018 26.876 105.018 28.172C105.018 29.444 105.294 30.596 105.846 31.628C106.422 32.636 107.19 33.44 108.15 34.04C109.134 34.616 110.226 34.904 111.426 34.904ZM119.49 38.036C118.962 38.036 118.518 37.868 118.158 37.532C117.822 37.172 117.654 36.728 117.654 36.2V30.692L118.338 26.876L121.326 28.172V36.2C121.326 36.728 121.146 37.172 120.786 37.532C120.45 37.868 120.018 38.036 119.49 38.036ZM133.955 38C132.755 38 131.675 37.7 130.715 37.1C129.755 36.476 128.999 35.636 128.447 34.58C127.895 33.524 127.619 32.336 127.619 31.016V13.844C127.619 13.316 127.787 12.884 128.123 12.548C128.459 12.212 128.891 12.044 129.419 12.044C129.947 12.044 130.379 12.212 130.715 12.548C131.051 12.884 131.219 13.316 131.219 13.844V31.016C131.219 31.976 131.483 32.78 132.011 33.428C132.539 34.076 133.187 34.4 133.955 34.4H135.179C135.611 34.4 135.971 34.568 136.259 34.904C136.571 35.24 136.727 35.672 136.727 36.2C136.727 36.728 136.523 37.16 136.115 37.496C135.731 37.832 135.227 38 134.603 38H133.955ZM125.963 22.124C125.459 22.124 125.051 21.98 124.739 21.692C124.427 21.404 124.271 21.044 124.271 20.612C124.271 20.132 124.427 19.748 124.739 19.46C125.051 19.172 125.459 19.028 125.963 19.028H134.279C134.783 19.028 135.191 19.172 135.503 19.46C135.815 19.748 135.971 20.132 135.971 20.612C135.971 21.044 135.815 21.404 135.503 21.692C135.191 21.98 134.783 22.124 134.279 22.124H125.963Z" fill="#23645A"/>
<path d="M32.5834 17.25H15.3334M32.5834 24.9167H15.3334M32.5834 32.5833H23.0001M3.83342 23C3.83342 33.5858 12.4143 42.1667 23.0001 42.1667H42.1667V23C42.1667 12.4143 33.5858 3.83334 23.0001 3.83334C12.4143 3.83334 3.83342 12.4143 3.83342 23Z" stroke="#23645A" stroke-width="4" stroke-linecap="round" stroke-linejoin="round"/>
</svg>
